<svg xmlns="http://www.w3.org/2000/svg" width="30.637" height="41.883" viewBox="0 0 30.637 41.883">
  <g id="Layer_2" data-name="Layer 2" transform="translate(0.027 0.05)">
    <g id="Layer_1" data-name="Layer 1" transform="translate(-0.027 -0.05)">
      <path id="Path_3605" data-name="Path 3605" d="M11.872,41.833H7.98c-.014-1.61-.06-3.221-.029-4.83.012-.617-.168-.776-.773-.765-2.19.037-4.382,0-6.571.022-.465,0-.655-.048-.537-.605.219-.995.371-2.007.491-3.014.093-.774.32-1.245,1.237-1.078a6.853,6.853,0,0,0,1.572.01c1.28-.064,1.756-.567,1.765-1.867.01-1.673,0-3.347,0-5.02V13.064c0-1.523-.524-2.089-2.024-2.359a11.326,11.326,0,0,0-2.4-.063c-.536.024-.769-.072-.734-.685A24.438,24.438,0,0,0-.017,7.163c-.029-.561.111-.736.7-.725,2.128.045,4.259,0,6.387.042.67.013.9-.139.883-.864-.043-1.887.01-3.776.025-5.666h3.892V4.763c0,1.549,0,1.549,1.588,1.517a3.826,3.826,0,0,1,.735,0c.735.131.846-.22.832-.873-.038-1.819,0-3.637,0-5.458h3.892c0,1.858.029,3.717,0,5.574-.01.637.051,1,.84,1.034A14.106,14.106,0,0,1,23.1,7.2c5.06,1.485,5.818,5.726,4.88,9.133a5.813,5.813,0,0,1-3,3.462c.5.169.907.295,1.3.44a6.052,6.052,0,0,1,4.206,4.94,11.924,11.924,0,0,1,.1,2.5,7.8,7.8,0,0,1-5.834,7.659,21.436,21.436,0,0,1-5.083.865c-.579.042-.774.187-.757.8.042,1.609.008,3.221,0,4.831H15.018c0-1.572-.03-3.154,0-4.73.009-.524-.064-.8-.683-.746a8.7,8.7,0,0,1-1.752-.042c-.573-.067-.742.109-.727.694C11.9,38.611,11.872,40.225,11.872,41.833ZM11.9,27.182v2.509c0,1.889,0,1.886,1.858,1.892a17.492,17.492,0,0,0,6.28-.839,3.85,3.85,0,0,0,2.576-2.463c.642-2.1-.425-3.973-2.782-4.793-2.442-.849-4.979-.676-7.509-.647-.5,0-.423.321-.423.624ZM14.21,10.948c-.586,0-1.173.013-1.758,0-.37-.012-.561.071-.558.506.016,2.323.012,4.648,0,6.972,0,.352.122.491.482.494a16.851,16.851,0,0,0,6.29-.726,3.294,3.294,0,0,0,2.47-3.3,3.453,3.453,0,0,0-2.558-3.362,11.748,11.748,0,0,0-4.366-.579Z" transform="translate(0.027 0.05)" fill="#000"/>
    </g>
  </g>
</svg>
