<svg id="Layer_1" data-name="Layer 1" xmlns="http://www.w3.org/2000/svg" width="31.542" height="41.883" viewBox="0 0 31.542 41.883">
  <path id="Path_3604" data-name="Path 3604" d="M-.116,20.82c.017-.2.041-.409.051-.615A16.482,16.482,0,0,1,4.9,8.8a17.07,17.07,0,0,1,7.723-4.294,20.383,20.383,0,0,1,5.252-.667h.558V0c.623.046,1.208.076,1.793.138.514.056,1.022.159,1.535.219.229.027.3.115.293.347-.014,1.07-.006,2.141-.006,3.211v.3l1.512.356V.809a1.068,1.068,0,0,1,.211.03c1.054.4,2.109.8,3.163,1.2a.318.318,0,0,1,.217.359c-.008,1.123,0,2.246-.009,3.374a.4.4,0,0,0,.233.41,14.819,14.819,0,0,1,3.933,3.175c.034.038.065.079.105.133L26.82,13.731c-.256-.274-.49-.558-.757-.807a11.042,11.042,0,0,0-8.541-3.018,11.1,11.1,0,0,0-5.834,1.939A10.133,10.133,0,0,0,7.476,18.4,12.127,12.127,0,0,0,8.25,26a9.936,9.936,0,0,0,6.839,5.711,11.272,11.272,0,0,0,11.614-3.3c.041-.045.073-.1.13-.174l4.58,4.236a14.751,14.751,0,0,1-2.79,2.568c-.408.287-.832.554-1.265.8a.385.385,0,0,0-.219.392q.013,1.645,0,3.291a.36.36,0,0,1-.142.285c-1.106.437-2.22.855-3.331,1.277a.379.379,0,0,1-.105,0V37.445l-1.524.351V41.5c-.686.093-1.353.186-2.019.273-.309.041-.62.071-.929.105H18.4a.663.663,0,0,0,.023-.128v-3.42a1,1,0,0,0-.035-.182h-.957a19.466,19.466,0,0,1-5.361-.8,16.816,16.816,0,0,1-7.723-4.686A16.547,16.547,0,0,1-.079,21.783c-.009-.216-.034-.431-.051-.646Z" transform="translate(0.13)" fill="#000"/>
</svg>
