<svg id="Layer_2" data-name="Layer 2" xmlns="http://www.w3.org/2000/svg" width="36.859" height="29.919" viewBox="0 0 36.859 29.919">
  <g id="Layer_1" data-name="Layer 1">
    <path id="Path_3606" data-name="Path 3606" d="M0,48.588c.056-.243.109-.483.165-.723.207-.888.391-1.779.645-2.652a4.355,4.355,0,0,1,.653-1.362A3.35,3.35,0,0,1,3.35,42.6,5.771,5.771,0,0,1,4.9,42.409H18.578c.087,0,.1.017.084.1-.248,1.117-.483,2.234-.8,3.334a4.054,4.054,0,0,1-.765,1.5,3.423,3.423,0,0,1-1.84,1.117,6.215,6.215,0,0,1-1.541.173H0Z" transform="translate(0 -30.568)" fill="#000"/>
    <path id="Path_3607" data-name="Path 3607" d="M27.34,29.919H19.668c-.109,0-.112,0-.092-.109q.279-1.625.581-3.25c.162-.916.327-1.829.486-2.745.017-.089.039-.123.142-.123H32.553a17.43,17.43,0,0,0,3.387-.307,9.8,9.8,0,0,0,3.049-1.094,6.893,6.893,0,0,0,2.756-2.934,12.709,12.709,0,0,0,.921-2.563c.246-.935.458-1.876.617-2.828a11.807,11.807,0,0,0,.209-2.426,6.142,6.142,0,0,0-.447-2.25,4.249,4.249,0,0,0-2.158-2.181,8.261,8.261,0,0,0-2.175-.659,17.109,17.109,0,0,0-2.851-.218H23.8c-.078,0-.081-.028-.07-.092l.812-4.584c.087-.486.176-.972.257-1.457,0-.075.036-.1.114-.1H38.673a22.615,22.615,0,0,1,2.745.179,16.146,16.146,0,0,1,3.35.74A9.694,9.694,0,0,1,47.82,2.58a7.887,7.887,0,0,1,2.34,3.23,10.908,10.908,0,0,1,.653,2.538,15.948,15.948,0,0,1,.142,2.68c-.017.729-.073,1.455-.156,2.178a32.571,32.571,0,0,1-.575,3.4,21.778,21.778,0,0,1-2.139,5.774,15.077,15.077,0,0,1-2.745,3.588A13.351,13.351,0,0,1,41.085,28.7a14.971,14.971,0,0,1-3.63.96c-.891.12-1.781.184-2.678.221-1.05.042-2.1.034-3.149.034Z" transform="translate(-14.104)" fill="#000"/>
  </g>
</svg>
