<svg xmlns="http://www.w3.org/2000/svg" width="25.225" height="41.098" viewBox="0 0 25.225 41.098">
  <g id="Layer_2" data-name="Layer 2" transform="translate(0 0.075)">
    <g id="Layer_1" data-name="Layer 1" transform="translate(0 -0.075)">
      <path id="Path_3608" data-name="Path 3608" d="M0,20.844a.02.02,0,0,0,.019,0,.329.329,0,0,0,.048-.012l1.087-.493L3.5,19.269,7.169,17.6l2.08-.951,3.268-1.485a.147.147,0,0,0,.1-.158q0-7.469,0-14.938c0-.035.014-.074-.015-.105.007-.017,0-.059.037-.026a.37.37,0,0,1,.055.084l9.643,16.01q1.431,2.377,2.863,4.75c.045.074.03.1-.038.139q-4.774,2.82-9.548,5.645-1.456.86-2.911,1.723a.128.128,0,0,1-.152,0L2.863,22.557Q1.433,21.708,0,20.865Z" transform="translate(0 0.075)" fill="#000"/>
      <path id="Path_3609" data-name="Path 3609" d="M12.96.63c.029.031.015.07.015.105q0,7.469,0,14.938a.147.147,0,0,1-.1.158q-1.636.74-3.268,1.485l-2.08.951Q5.7,19.1,3.859,19.936L1.514,21.005.428,21.5a.33.33,0,0,1-.048.012c.165-.279.328-.559.495-.837q2.441-4.055,4.884-8.109l5.264-8.749q.932-1.545,1.865-3.095C12.908.689,12.917.646,12.96.63Z" transform="translate(-0.357 -0.588)" fill="#000"/>
      <path id="Path_3610" data-name="Path 3610" d="M212.267,400.766l2.884-1.7,9.582-5.661.1-.053.015.021c-.254.361-.506.723-.761,1.083q-5.864,8.264-11.729,16.522c-.025.034-.03.1-.094.094,0-.033.007-.067.007-.1Z" transform="translate(-199.648 -369.974)" fill="#000"/>
      <path id="Path_3611" data-name="Path 3611" d="M13.474,400.85v10.207c0,.033,0,.067-.007.1-.178-.217-.331-.453-.493-.682l-6.417-9.048-4.589-6.468-1-1.409c-.021-.03-.039-.059-.059-.093l.015-.017c.3.152.573.33.858.5Q4.6,395.6,7.4,397.261l6.018,3.559C13.44,400.828,13.457,400.841,13.474,400.85Z" transform="translate(-0.856 -370.059)" fill="#000"/>
      <path id="Path_3612" data-name="Path 3612" d="M.473,393.06l-.013-.01C.472,393.043.475,393.048.473,393.06Z" transform="translate(-0.433 -369.689)" fill="#000"/>
      <path id="Path_3613" data-name="Path 3613" d="M424.311,393.075v-.015l.013,0-.014.009Z" transform="translate(-399.099 -369.701)" fill="#000"/>
      <path id="Path_3614" data-name="Path 3614" d="M.68,393.27l.03.008-.015.017L.68,393.27Z" transform="translate(-0.64 -369.899)" fill="#000"/>
      <path id="Path_3615" data-name="Path 3615" d="M423.8,393.2c.009-.006.019-.018.031,0v0a.021.021,0,0,1,0,.016.02.02,0,0,1-.013.01Z" transform="translate(-398.619 -369.821)" fill="#000"/>
    </g>
  </g>
</svg>
