<svg xmlns="http://www.w3.org/2000/svg" width="25.691" height="35.217" viewBox="0 0 25.691 35.217">
  <g id="Layer_2" data-name="Layer 2" transform="translate(0 0.001)">
    <g id="Layer_1" data-name="Layer 1" transform="translate(0 -0.001)">
      <path id="Path_3616" data-name="Path 3616" d="M0,23.388l.685-2.1c.082-.251.166-.5.244-.754a.205.205,0,0,1,.156-.157c1.342-.4,2.683-.812,4.027-1.213a.276.276,0,0,0,.213-.217Q7.991,9.869,10.662.794A.987.987,0,0,1,11.722.006C13.613.005,15.507.016,17.4,0a.814.814,0,0,1,.81,1.106q-2.232,7.6-4.473,15.21c-.015.051-.027.1-.046.184l4.3-1.3-.351,1.2c-.175.6-.353,1.2-.524,1.806a.2.2,0,0,1-.155.155q-2.07.582-4.137,1.172c-.069.019-.118.038-.142.118Q11.3,24.31,9.918,28.967a.326.326,0,0,0-.006.055h.173q7.379,0,14.757-.006a.807.807,0,0,1,.807,1.085c-.406,1.445-.833,2.883-1.251,4.324a.983.983,0,0,1-1.042.79H.615c-.166,0-.166,0-.12-.16L4.246,22.277c.008-.026.014-.052.023-.077.028-.08-.007-.083-.071-.063-.2.062-.4.122-.6.183L.161,23.362A.276.276,0,0,1,0,23.388Z" transform="translate(0 0.001)" fill="#000"/>
    </g>
  </g>
</svg>
