<svg id="Layer_1" data-name="Layer 1" xmlns="http://www.w3.org/2000/svg" width="35.232" height="32.466" viewBox="0 0 35.232 32.466">
  <path id="Path_3617" data-name="Path 3617" d="M17.684-.008H30.938c.207,0,.185-.026.185.173V6.41c0,.138-.041.173-.173.173H21.433c-.185,0-.185,0-.185.173v3.981c0,.123.031.154.154.16,1.208.06,2.416.145,3.611.269,1.247.129,2.49.292,3.723.518a21.84,21.84,0,0,1,4.486,1.22,5.608,5.608,0,0,1,1.48.845,2.091,2.091,0,0,1,.345.359,1.025,1.025,0,0,1-.057,1.361,3.309,3.309,0,0,1-.956.742,11.94,11.94,0,0,1-2.579.994,33.6,33.6,0,0,1-4.4.883q-1.506.212-3.021.345c-.863.074-1.712.138-2.569.173-.216,0-.216.01-.216.219V32.265c0,.216.017.19-.186.19H14.276c-.141,0-.173-.031-.173-.173V18.824c0-.193,0-.2-.188-.211-.668-.045-1.335-.083-2-.131-.757-.055-1.513-.131-2.267-.217-.956-.107-1.908-.238-2.854-.407a22.329,22.329,0,0,1-4.753-1.28,5.149,5.149,0,0,1-1.47-.863,1.97,1.97,0,0,1-.183-.183,1.061,1.061,0,0,1,.041-1.587,4.241,4.241,0,0,1,1.313-.863A15.889,15.889,0,0,1,4.814,12.07a38.477,38.477,0,0,1,4.034-.716c1.146-.147,2.295-.266,3.451-.345.561-.036,1.12-.072,1.681-.1.095,0,.128-.028.128-.128V6.712c0-.133-.066-.128-.157-.128H4.393c-.119,0-.162-.021-.162-.152V.144c0-.126.036-.154.159-.154Zm.14,17.528c.823.012,1.725,0,2.624-.038,1.273-.052,2.543-.123,3.813-.238.821-.074,1.641-.159,2.459-.269,1.056-.143,2.1-.316,3.144-.557a13.253,13.253,0,0,0,2.488-.792,3.13,3.13,0,0,0,.989-.642.734.734,0,0,0,.009-1.113,1.974,1.974,0,0,0-.323-.278,5.176,5.176,0,0,0-1.147-.575,21.718,21.718,0,0,0-4.42-1.035c-.959-.148-1.924-.259-2.89-.345q-1.579-.148-3.161-.223c-.136,0-.173.024-.173.173v4.517c0,.095-.012.136-.124.147-.828.069-1.66.083-2.49.095q-2.186.036-4.37-.1c-.129,0-.154-.048-.154-.173V11.547c0-.107-.029-.141-.136-.131-.173.016-.345.019-.518.028q-2.1.1-4.184.345a35.258,35.258,0,0,0-3.844.65,12.8,12.8,0,0,0-2.459.789,2.761,2.761,0,0,0-1.051.723.69.69,0,0,0,0,.954,2.36,2.36,0,0,0,.785.592,10.9,10.9,0,0,0,2.526.868,39.1,39.1,0,0,0,5.231.826c1.28.128,2.566.214,3.851.267,1.153.048,2.305.076,3.525.066Z" transform="translate(-0.048 0.01)" fill="#000"/>
</svg>
