<svg id="Layer_1" data-name="Layer 1" xmlns="http://www.w3.org/2000/svg" xmlns:xlink="http://www.w3.org/1999/xlink" width="47.305" height="30.601" viewBox="0 0 47.305 30.601">
  <defs>
    <clipPath id="clip-path">
      <path id="SVGID" d="M385.1,4.578l1.408,1.371a6.912,6.912,0,0,0,1.321.967l5.736,3.049c.4.213.423.184.045-.075l-8.339-5.428a.824.824,0,0,0-.329-.162c-.072,0-.032.092.155.276" transform="translate(-384.905 -4.3)" fill="#000"/>
    </clipPath>
    <clipPath id="clip-path-2">
      <path id="SVGID-2" data-name="SVGID" d="M290.168,135.765,277.46,146.653c-.347.3-.88.81-1.19,1.145l-5.178,5.592c-.123.134-.2.253-.164.265s.167-.076.3-.2l9.072-8.449,9.889-9.213a2.016,2.016,0,0,0,.244-.242,2.554,2.554,0,0,0-.266.215" transform="translate(-270.92 -135.55)" fill="#000"/>
    </clipPath>
    <clipPath id="clip-path-3">
      <path id="SVGID-3" data-name="SVGID" d="M329.368,4.53l-.651.745a.669.669,0,0,0,.166,1.05l4.661,2.8a.66.66,0,0,0,1-.351l.5-1.35a.95.95,0,0,0-.451-1.15l-3.936-1.991a1.012,1.012,0,0,0-.46-.1,1.109,1.109,0,0,0-.828.353" transform="translate(-328.531 -4.179)" fill="#000"/>
    </clipPath>
    <clipPath id="clip-path-4">
      <path id="SVGID-4" data-name="SVGID" d="M367.345.374l.174.087c.408.207.547.184.312-.044A1.474,1.474,0,0,0,367.007,0c-.219,0-.069.167.339.374" transform="translate(-366.907)" fill="#000"/>
    </clipPath>
    <clipPath id="clip-path-5">
      <path id="SVGID-5" data-name="SVGID" d="M282.147,169.8l-6.5,7.979a5.494,5.494,0,0,0-.791,1.424l-1.271,3.741c-.147.432-.016.512.3.177l4.355-4.7a6.058,6.058,0,0,0,.9-1.362l3.2-7.143c.1-.231.123-.35.073-.35s-.129.077-.258.236" transform="translate(-273.525 -169.56)" fill="#000"/>
    </clipPath>
    <clipPath id="clip-path-6">
      <path id="SVGID-6" data-name="SVGID" d="M285.5,0c-.46,0-.5.167-.092.368l1.776.894a1.122,1.122,0,0,0,1.286-.25l.342-.391c.3-.345.173-.621-.283-.621Z" transform="translate(-285.129)" fill="#000"/>
    </clipPath>
    <clipPath id="clip-path-7">
      <path id="SVGID-7" data-name="SVGID" d="M217.706,3.129,214.7,4.639a.486.486,0,0,0-.092.883l3.19,2.515a1.1,1.1,0,0,0,1.3,0l3.178-2.515a.487.487,0,0,0-.092-.885l-3-1.509a1.848,1.848,0,0,0-1.478,0" transform="translate(-214.364 -2.975)" fill="#000"/>
    </clipPath>
    <clipPath id="clip-path-8">
      <path id="SVGID-8" data-name="SVGID" d="M239.3,162.194l-1.73,8.163a3.541,3.541,0,0,0,.1,1.592l1.536,4.49c.148.431.387.431.535,0l1.528-4.488a3.547,3.547,0,0,0,.092-1.593l-1.72-8.163c-.047-.224-.109-.335-.171-.335s-.123.111-.171.335" transform="translate(-237.521 -161.86)" fill="#000"/>
    </clipPath>
    <clipPath id="clip-path-9">
      <path id="SVGID-9" data-name="SVGID" d="M147.258,170.09l3.22,7.176a6,6,0,0,0,.9,1.361l4.324,4.66c.311.335.443.256.3-.176l-1.28-3.747a5.531,5.531,0,0,0-.79-1.423l-6.487-7.964c-.129-.158-.217-.236-.258-.236s-.029.119.074.35" transform="translate(-147.163 -169.74)" fill="#000"/>
    </clipPath>
    <clipPath id="clip-path-10">
      <path id="SVGID-10" data-name="SVGID" d="M190.8,0c-.46,0-.583.276-.283.623l.343.389a1.122,1.122,0,0,0,1.283.252l1.784-.9c.408-.205.368-.368-.092-.368Z" transform="translate(-190.353)" fill="#000"/>
    </clipPath>
    <clipPath id="clip-path-11">
      <path id="SVGID-11" data-name="SVGID" d="M34.558,135.792l9.889,9.213,9.123,8.487c.133.123.26.206.283.184s-.059-.148-.184-.282l-5.152-5.553c-.311-.335-.845-.847-1.191-1.145l-12.75-10.929a2.62,2.62,0,0,0-.266-.216,1.945,1.945,0,0,0,.247.242" transform="translate(-34.31 -135.55)" fill="#000"/>
    </clipPath>
    <clipPath id="clip-path-12">
      <path id="SVGID-12" data-name="SVGID" d="M121.964,4.265l-3.934,1.99a.949.949,0,0,0-.451,1.15l.5,1.35a.66.66,0,0,0,1,.351l4.662-2.8A.668.668,0,0,0,123.9,5.26l-.653-.748a1.109,1.109,0,0,0-.828-.353,1,1,0,0,0-.46.1" transform="translate(-117.526 -4.159)" fill="#000"/>
    </clipPath>
    <clipPath id="clip-path-13">
      <path id="SVGID-13" data-name="SVGID" d="M139.233.418c-.235.231-.092.25.312.044L139.72.37c.408-.2.559-.37.339-.37a1.453,1.453,0,0,0-.828.418" transform="translate(-139.12)" fill="#000"/>
    </clipPath>
    <clipPath id="clip-path-14">
      <path id="SVGID-14" data-name="SVGID" d="M46.45,4.7s-8.679,5.7-8.275,5.484l5.74-3.049a6.855,6.855,0,0,0,1.321-.967l1.388-1.351c.184-.184.227-.276.155-.276a.839.839,0,0,0-.33.162" transform="translate(-38.161 -4.54)" fill="#000"/>
    </clipPath>
    <clipPath id="clip-path-15">
      <path id="SVGID-15" data-name="SVGID" d="M448.46,56.028l.2.184a2.729,2.729,0,0,0,1.179.621c.309.04.235-.1-.168-.318l-1.131-.605a.068.068,0,0,0-.034-.009.073.073,0,0,0-.047.127" transform="translate(-448.435 -55.9)" fill="#000"/>
    </clipPath>
    <clipPath id="clip-path-16">
      <path id="SVGID-16" data-name="SVGID" d="M408.205,135.6l-.04.006a2.629,2.629,0,0,0-1.38.71l-4.346,4.7c-.311.336-.281.368.066.069l5.894-5.048c.306-.262.276-.444-.049-.444a1.179,1.179,0,0,0-.144.009" transform="translate(-402.224 -135.59)" fill="#000"/>
    </clipPath>
    <clipPath id="clip-path-17">
      <path id="SVGID-17" data-name="SVGID" d="M361.586,134.289l-1.81.148a1.541,1.541,0,0,0-1.162.823l-3.4,7.6c-.184.417-.086.483.224.147l7.411-8.011c.31-.336.338-.644.062-.688a4.846,4.846,0,0,0-.679-.038c-.216,0-.444.007-.644.024" transform="translate(-355.122 -134.264)" fill="#000"/>
    </clipPath>
    <clipPath id="clip-path-18">
      <path id="SVGID-18" data-name="SVGID" d="M403.452,41.761l-.387,1.048a.6.6,0,0,0,.538.844l1.472.121a6.785,6.785,0,0,0,1.269,0c.246-.04.168-.318-.173-.621l-1.814-1.617a.622.622,0,0,0-.409-.175.54.54,0,0,0-.495.4" transform="translate(-403.017 -41.36)" fill="#000"/>
    </clipPath>
    <clipPath id="clip-path-19">
      <path id="SVGID-19" data-name="SVGID" d="M328.023,39.369l.368,1.17a1.342,1.342,0,0,0,1.075.859l1.575.136a6.972,6.972,0,0,0,1.2.016c.209-.03.061-.247-.33-.481l-3.432-2.062a.638.638,0,0,0-.306-.108c-.184,0-.247.17-.152.47" transform="translate(-327.979 -38.9)" fill="#000"/>
    </clipPath>
    <clipPath id="clip-path-20">
      <path id="SVGID-20" data-name="SVGID" d="M308.077,134.285l-1.582.137a1.38,1.38,0,0,0-1.092.854l-2.653,7.739c-.148.432-.034.5.254.142l6.611-8.119c.288-.354.246-.682-.1-.736a6.042,6.042,0,0,0-.8-.045c-.223,0-.447.008-.639.025" transform="translate(-302.685 -134.256)" fill="#000"/>
    </clipPath>
    <clipPath id="clip-path-21">
      <path id="SVGID-21" data-name="SVGID" d="M279.3,36.764,276.7,38.817c-.358.283-.276.547.175.59l.488.045a10.472,10.472,0,0,0,1.647,0l1.073-.1a.638.638,0,0,0,.573-.867l-.46-1.449a.547.547,0,0,0-.505-.427.644.644,0,0,0-.395.152" transform="translate(-276.481 -36.61)" fill="#000"/>
    </clipPath>
    <clipPath id="clip-path-22">
      <path id="SVGID-22" data-name="SVGID" d="M268.328,134.3l-1.129.1a.72.72,0,0,0-.653.886l1.748,8.281c.092.447.291.46.439.028l2.857-8.344a.62.62,0,0,0-.552-.859l-1.064-.1c-.227-.021-.525-.032-.823-.032s-.6.011-.823.032" transform="translate(-266.526 -134.27)" fill="#000"/>
    </clipPath>
    <clipPath id="clip-path-23">
      <path id="SVGID-23" data-name="SVGID" d="M195.465,37.038l-.46,1.45a.638.638,0,0,0,.572.865l1.08.1a10.7,10.7,0,0,0,1.647,0l.491-.046c.455-.042.533-.305.175-.589l-2.6-2.055a.644.644,0,0,0-.394-.153.544.544,0,0,0-.507.428" transform="translate(-194.963 -36.61)" fill="#000"/>
    </clipPath>
    <clipPath id="clip-path-24">
      <path id="SVGID-24" data-name="SVGID" d="M196.958,134.339l-1.065.1a.618.618,0,0,0-.552.859l2.861,8.343c.148.432.345.42.44-.027l1.755-8.281a.719.719,0,0,0-.652-.885l-1.134-.1c-.228-.021-.526-.032-.828-.032s-.6.011-.823.032" transform="translate(-195.296 -134.31)" fill="#000"/>
    </clipPath>
    <clipPath id="clip-path-25">
      <path id="SVGID-25" data-name="SVGID" d="M137.747,134.345c-.368.052-.441.381-.153.736l6.608,8.113c.288.354.4.291.254-.142l-2.654-7.74a1.38,1.38,0,0,0-1.092-.858l-1.467-.131c-.191-.017-.42-.026-.65-.026a6.675,6.675,0,0,0-.847.046" transform="translate(-137.418 -134.297)" fill="#000"/>
    </clipPath>
    <clipPath id="clip-path-26">
      <path id="SVGID-26" data-name="SVGID" d="M146.166,39.018l-3.422,2.054c-.392.235-.517.453-.276.486a7.24,7.24,0,0,0,1.253-.014l1.459-.131a1.348,1.348,0,0,0,1.076-.862l.368-1.17c.092-.3.029-.47-.151-.47a.622.622,0,0,0-.307.108" transform="translate(-142.345 -38.91)" fill="#000"/>
    </clipPath>
    <clipPath id="clip-path-27">
      <path id="SVGID-27" data-name="SVGID" d="M74.928,134.243c-.2.04-.115.342.2.678l7.447,8.061c.31.336.409.27.223-.146l-3.424-7.623A1.534,1.534,0,0,0,78.2,134.4l-2.08-.158c-.212-.017-.44-.025-.644-.025a3.55,3.55,0,0,0-.552.031" transform="translate(-74.819 -134.211)" fill="#000"/>
    </clipPath>
    <clipPath id="clip-path-28">
      <path id="SVGID-28" data-name="SVGID" d="M77.944,41.546l-1.83,1.63c-.341.3-.477.577-.3.611a6.286,6.286,0,0,0,1.145,0l1.748-.133a.59.59,0,0,0,.538-.838l-.386-1.045a.536.536,0,0,0-.494-.4.624.624,0,0,0-.409.176" transform="translate(-75.736 -41.37)" fill="#000"/>
    </clipPath>
    <clipPath id="clip-path-29">
      <path id="SVGID-29" data-name="SVGID" d="M45.705,135.921l5.966,5.115c.347.3.376.266.067-.07l-4.39-4.751a2.66,2.66,0,0,0-1.38-.715l-.07-.009a1.138,1.138,0,0,0-.15-.01c-.318,0-.347.184-.042.441" transform="translate(-45.493 -135.48)" fill="#000"/>
    </clipPath>
    <clipPath id="clip-path-30">
      <path id="SVGID-30" data-name="SVGID" d="M52.692,55.811l-.976.521c-.4.214-.471.354-.152.312a2.767,2.767,0,0,0,1.2-.627l.046-.041c.209-.184.27-.285.2-.285a.9.9,0,0,0-.309.121" transform="translate(-51.363 -55.69)" fill="#000"/>
    </clipPath>
    <clipPath id="clip-path-31">
      <path id="SVGID-31" data-name="SVGID" d="M227.892,105.06h-.071c-.117,0-.212.131-.212.282v.393c0,.092,0,.19.006.292l0,.1a.324.324,0,0,0,.352.276s.21,0,.424-.006a1.9,1.9,0,0,0,.572-.1.828.828,0,0,0,.368-.247.552.552,0,0,0,.12-.35.454.454,0,0,0-.144-.359.92.92,0,0,0-.368-.193,2.043,2.043,0,0,0-.466-.078c-.164-.009-.313-.014-.446-.014Z" transform="translate(-227.61 -105.06)" fill="#000"/>
    </clipPath>
    <clipPath id="clip-path-32">
      <path id="SVGID-32" data-name="SVGID" d="M227.922,82.973h-.1c-.109,0-.2.127-.2.276l-.008.092c0,.1-.006.191-.006.282s0,.184.006.276l0,.092c0,.139.16.254.352.255,0,0,.092,0,.285-.006a2.116,2.116,0,0,0,.523-.078.786.786,0,0,0,.415-.242.558.558,0,0,0,.126-.351.46.46,0,0,0-.132-.351.769.769,0,0,0-.308-.184,1.559,1.559,0,0,0-.368-.064c-.122,0-.223,0-.3,0Z" transform="translate(-227.61 -82.97)" fill="#000"/>
    </clipPath>
    <clipPath id="clip-path-33">
      <path id="SVGID-33" data-name="SVGID" d="M7.9,77.151,3.91,77.129c-.46,0-.552-.248-.2-.547l.927-.808A1.348,1.348,0,0,1,6,75.6l1.315.644a7.25,7.25,0,0,1,1.077.644c.184.15-.029.27-.475.27H7.9m32.952-.908,1.316-.644a1.349,1.349,0,0,1,1.366.178l.926.808c.345.3.254.545-.2.547l-3.99.022h-.016c-.446,0-.659-.12-.476-.27M7.617,75.312,5.961,74.306a8.977,8.977,0,0,1-1.366-1c-.236-.236.043-.423.619-.42l5.039.036c.577,0,.692.385.257.852L9.342,75.035a1.484,1.484,0,0,1-1.067.45,1.266,1.266,0,0,1-.655-.173m30.643-.276L37.09,73.779c-.434-.467-.319-.848.257-.852l5.038-.036c.578,0,.856.184.621.42a9.041,9.041,0,0,1-1.362,1l-1.656,1.006a1.264,1.264,0,0,1-.655.173,1.482,1.482,0,0,1-1.069-.45M27.487,72.708l.466-.006h.26c.192-.006.419.157.412.315,0,0-.017.316-.024.616s-.013.6-.013.894c0,.493,0,.982.013,1.472s.047,1.174.047,1.174c.008.157-.217.327-.41.327h-.656c-.143,0-.3,0-.46.006l-.26.006c-.192,0-.422-.162-.419-.319,0,0,.031-1.485.031-2.371V74.37c0-.138,0-.282-.006-.433s-.01-.321-.018-.509-.021-.388-.021-.388c-.009-.157.2-.327.4-.326h.663m2.843.634v-.057c0-.057.007-.11.012-.16a1.683,1.683,0,0,0,.014-.168l0-.059c0-.092.236-.206.429-.206H35.8c.192,0,.4.106.384.192l-.008.062c-.008.062-.015.119-.019.173s-.007.109-.012.167l0,.056a.276.276,0,0,1-.166.19h-.742c-.159,0-.317-.006-.471-.006h-.155c-.175,0-.318.066-.319.147v.066c0,.064-.006.131-.006.2v.451q0,.778.013,1.542c.007.509.048,1.256.048,1.256.008.157-.218.326-.411.326h-.72l-.441.007h-.191c-.192,0-.406-.148-.4-.288l0-.092c0-.092.007-.184.012-.292s.006-.228.006-.368v-1.2q0-.285.013-.577c0-.167,0-.3.006-.407s.006-.2.006-.276v-.3c0-.11-.158-.2-.351-.2H30.569c-.108,0-.247-.106-.239-.19M11.28,77.35c.029-.03.152-.155.276-.276l.092-.092.232-.231c.072-.07.145-.144.221-.22l.075-.077.415-.441.68-.719a.331.331,0,0,0,0-.452l-.512-.532c-.119-.124-.3-.318-.4-.432l-.092-.1c-.092-.1-.2-.2-.3-.3s-.206-.219-.34-.357l-.134-.137c-.113-.121,0-.259.2-.26h.276c.171,0,.335-.006.49-.01l.478-.014.248-.007a2.16,2.16,0,0,1,.394.007.9.9,0,0,1,.169.2l.051.07c.051.07.1.135.145.193s.092.114.132.166l.042.052c.053.066.184.228.292.359l.126.155a.227.227,0,0,0,.368.017c.092-.121.245-.313.338-.427L15.3,73.4l.155-.214c.051-.065.1-.133.151-.2l.051-.07a.742.742,0,0,1,.176-.2,3.059,3.059,0,0,1,.4-.017h.543l.4-.006h.172c.192,0,.322.092.241.173l-.067.063q-.1.092-.226.224c-.085.086-.184.19-.3.312s-.224.236-.224.236c-.119.123-.31.328-.426.455l-.552.6a.348.348,0,0,0,0,.46l.616.679.42.46.223.243c.1.116.2.213.276.3s.155.162.226.24l.071.079c.117.122.017.276-.176.276h-.31l-.5.01-.46.014-.2.006a2.323,2.323,0,0,1-.395-.013.552.552,0,0,1-.12-.114l-.024-.039a1.589,1.589,0,0,0-.114-.145c-.05-.059-.116-.138-.2-.237L15,76.809c-.1-.132-.276-.349-.384-.479l-.092-.107a.23.23,0,0,0-.379.006l-.01.014c-.1.133-.258.337-.348.45l-.264.339-.037.045c-.038.045-.072.086-.1.122s-.059.073-.092.111l-.029.039a.514.514,0,0,1-.121.121,2.425,2.425,0,0,1-.395.019h-.587l-.415.007H11.55a.316.316,0,0,1-.27-.147m7.628.134a.712.712,0,0,1-.025-.306s.017-.416.025-.761.014-.7.014-1.048q0-.664-.014-1.315c-.007-.434-.053-1.029-.053-1.029-.012-.157.2-.327.391-.327h.7q.435,0,.812-.01h.955c.286,0,.6.006.945.017a4.435,4.435,0,0,1,.949.126,1.943,1.943,0,0,1,.73.335.773.773,0,0,1,.3.653.828.828,0,0,1-.315.651,1.907,1.907,0,0,1-.565.292c-.184.055-.374.109-.429.12l-.05.009-.051.009c-.055.01-.062.021-.013.026h.1l.328.052a4.855,4.855,0,0,1,.757.246,1.157,1.157,0,0,1,.38.287.9.9,0,0,1,.2.552.876.876,0,0,1-.082.383,1.14,1.14,0,0,1-.213.308,1.552,1.552,0,0,1-.29.234l-.1.066c-.111.051-.348.144-.524.208a2.686,2.686,0,0,1-.352.086,6.555,6.555,0,0,1-.828.1q-.453.03-.987.038t-1.152.006H19.7l-.453.006h-.154a.634.634,0,0,1-.184-.019M3.19,72.42a.552.552,0,0,0-.307.092L.239,74.289a.552.552,0,0,0-.08.853l2.5,2.452a.552.552,0,0,0,.386.158H44.157a1.146,1.146,0,0,0,.8-.324l2.074-2.017a.894.894,0,0,0-.1-1.367l-1.9-1.364a1.351,1.351,0,0,0-.789-.255Z" transform="translate(0.006 -72.42)" fill="#000"/>
    </clipPath>
  </defs>
  <path id="SVGID-34" data-name="SVGID" d="M385.1,4.578l1.408,1.371a6.912,6.912,0,0,0,1.321.967l5.736,3.049c.4.213.423.184.045-.075l-8.339-5.428a.824.824,0,0,0-.329-.162c-.072,0-.032.092.155.276" transform="translate(-349.491 -3.904)" fill="#000"/>
  <g id="Group_146" data-name="Group 146" transform="translate(35.414 0.396)" clip-path="url(#clip-path)">
    <rect id="Rectangle_116" data-name="Rectangle 116" width="9.12" height="5.879" transform="translate(-0.038 -0.001)" fill="#000"/>
  </g>
  <path id="SVGID-35" data-name="SVGID" d="M290.168,135.765,277.46,146.653c-.347.3-.88.81-1.19,1.145l-5.178,5.592c-.123.134-.2.253-.164.265s.167-.076.3-.2l9.072-8.449,9.889-9.213a2.016,2.016,0,0,0,.244-.242,2.554,2.554,0,0,0-.266.215" transform="translate(-245.994 -123.079)" fill="#000"/>
  <g id="Group_147" data-name="Group 147" transform="translate(24.927 12.471)" clip-path="url(#clip-path-2)">
    <rect id="Rectangle_117" data-name="Rectangle 117" width="19.552" height="18.118" transform="translate(-0.029 0)" fill="#000"/>
  </g>
  <path id="SVGID-36" data-name="SVGID" d="M329.368,4.53l-.651.745a.669.669,0,0,0,.166,1.05l4.661,2.8a.66.66,0,0,0,1-.351l.5-1.35a.95.95,0,0,0-.451-1.15l-3.936-1.991a1.012,1.012,0,0,0-.46-.1,1.109,1.109,0,0,0-.828.353" transform="translate(-298.304 -3.794)" fill="#000"/>
  <g id="Group_148" data-name="Group 148" transform="translate(30.227 0.384)" clip-path="url(#clip-path-3)">
    <rect id="Rectangle_118" data-name="Rectangle 118" width="6.776" height="5.179" transform="translate(-0.115 0)" fill="#000"/>
  </g>
  <path id="SVGID-37" data-name="SVGID" d="M367.345.374l.174.087c.408.207.547.184.312-.044A1.474,1.474,0,0,0,367.007,0c-.219,0-.069.167.339.374" transform="translate(-333.149)" fill="#000"/>
  <g id="Group_149" data-name="Group 149" transform="translate(33.758)" clip-path="url(#clip-path-4)">
    <rect id="Rectangle_119" data-name="Rectangle 119" width="1.281" height="0.668" transform="translate(-0.121)" fill="#000"/>
  </g>
  <path id="SVGID-38" data-name="SVGID" d="M282.147,169.8l-6.5,7.979a5.494,5.494,0,0,0-.791,1.424l-1.271,3.741c-.147.432-.016.512.3.177l4.355-4.7a6.058,6.058,0,0,0,.9-1.362l3.2-7.143c.1-.231.123-.35.073-.35s-.129.077-.258.236" transform="translate(-248.359 -153.96)" fill="#000"/>
  <g id="Group_150" data-name="Group 150" transform="translate(25.166 15.6)" clip-path="url(#clip-path-5)">
    <rect id="Rectangle_120" data-name="Rectangle 120" width="9.018" height="13.893" transform="translate(-0.087 0.002)" fill="#000"/>
  </g>
  <path id="SVGID-39" data-name="SVGID" d="M285.5,0c-.46,0-.5.167-.092.368l1.776.894a1.122,1.122,0,0,0,1.286-.25l.342-.391c.3-.345.173-.621-.283-.621Z" transform="translate(-258.895)" fill="#000"/>
  <g id="Group_151" data-name="Group 151" transform="translate(26.234)" clip-path="url(#clip-path-6)">
    <rect id="Rectangle_121" data-name="Rectangle 121" width="4.108" height="1.471" transform="translate(-0.124)" fill="#000"/>
  </g>
  <path id="SVGID-40" data-name="SVGID" d="M217.706,3.129,214.7,4.639a.486.486,0,0,0-.092.883l3.19,2.515a1.1,1.1,0,0,0,1.3,0l3.178-2.515a.487.487,0,0,0-.092-.885l-3-1.509a1.848,1.848,0,0,0-1.478,0" transform="translate(-194.641 -2.702)" fill="#000"/>
  <g id="Group_152" data-name="Group 152" transform="translate(19.723 0.274)" clip-path="url(#clip-path-7)">
    <rect id="Rectangle_122" data-name="Rectangle 122" width="8.379" height="5.346" transform="translate(-0.114 0)" fill="#000"/>
  </g>
  <path id="SVGID-41" data-name="SVGID" d="M239.3,162.194l-1.73,8.163a3.541,3.541,0,0,0,.1,1.592l1.536,4.49c.148.431.387.431.535,0l1.528-4.488a3.547,3.547,0,0,0,.092-1.593l-1.72-8.163c-.047-.224-.109-.335-.171-.335s-.123.111-.171.335" transform="translate(-215.668 -146.968)" fill="#000"/>
  <g id="Group_153" data-name="Group 153" transform="translate(21.854 14.892)" clip-path="url(#clip-path-8)">
    <rect id="Rectangle_123" data-name="Rectangle 123" width="3.98" height="15.011" transform="translate(-0.045 -0.001)" fill="#000"/>
  </g>
  <path id="SVGID-42" data-name="SVGID" d="M147.258,170.09l3.22,7.176a6,6,0,0,0,.9,1.361l4.324,4.66c.311.335.443.256.3-.176l-1.28-3.747a5.531,5.531,0,0,0-.79-1.423l-6.487-7.964c-.129-.158-.217-.236-.258-.236s-.029.119.074.35" transform="translate(-133.622 -154.123)" fill="#000"/>
  <g id="Group_154" data-name="Group 154" transform="translate(13.54 15.617)" clip-path="url(#clip-path-9)">
    <rect id="Rectangle_124" data-name="Rectangle 124" width="9.015" height="13.877" transform="translate(-0.029 0)" fill="#000"/>
  </g>
  <path id="SVGID-43" data-name="SVGID" d="M190.8,0c-.46,0-.583.276-.283.623l.343.389a1.122,1.122,0,0,0,1.283.252l1.784-.9c.408-.205.368-.368-.092-.368Z" transform="translate(-172.839)" fill="#000"/>
  <g id="Group_155" data-name="Group 155" transform="translate(17.514)" clip-path="url(#clip-path-10)">
    <rect id="Rectangle_125" data-name="Rectangle 125" width="4.117" height="1.471" transform="translate(-0.136)" fill="#000"/>
  </g>
  <path id="SVGID-44" data-name="SVGID" d="M34.558,135.792l9.889,9.213,9.123,8.487c.133.123.26.206.283.184s-.059-.148-.184-.282l-5.152-5.553c-.311-.335-.845-.847-1.191-1.145l-12.75-10.929a2.62,2.62,0,0,0-.266-.216,1.945,1.945,0,0,0,.247.242" transform="translate(-31.153 -123.079)" fill="#000"/>
  <g id="Group_156" data-name="Group 156" transform="translate(3.157 12.471)" clip-path="url(#clip-path-11)">
    <rect id="Rectangle_126" data-name="Rectangle 126" width="19.575" height="18.148" transform="translate(-0.01 0)" fill="#000"/>
  </g>
  <path id="SVGID-45" data-name="SVGID" d="M121.964,4.265l-3.934,1.99a.949.949,0,0,0-.451,1.15l.5,1.35a.66.66,0,0,0,1,.351l4.662-2.8A.668.668,0,0,0,123.9,5.26l-.653-.748a1.109,1.109,0,0,0-.828-.353,1,1,0,0,0-.46.1" transform="translate(-106.712 -3.776)" fill="#000"/>
  <g id="Group_157" data-name="Group 157" transform="translate(10.814 0.383)" clip-path="url(#clip-path-12)">
    <rect id="Rectangle_127" data-name="Rectangle 127" width="6.776" height="5.179" transform="translate(-0.105 0.002)" fill="#000"/>
  </g>
  <path id="SVGID-46" data-name="SVGID" d="M139.233.418c-.235.231-.092.25.312.044L139.72.37c.408-.2.559-.37.339-.37a1.453,1.453,0,0,0-.828.418" transform="translate(-126.319)" fill="#000"/>
  <g id="Group_158" data-name="Group 158" transform="translate(12.8)" clip-path="url(#clip-path-13)">
    <rect id="Rectangle_128" data-name="Rectangle 128" width="1.281" height="0.668" transform="translate(-0.122)" fill="#000"/>
  </g>
  <path id="SVGID-47" data-name="SVGID" d="M46.45,4.7s-8.679,5.7-8.275,5.484l5.74-3.049a6.855,6.855,0,0,0,1.321-.967l1.388-1.351c.184-.184.227-.276.155-.276a.839.839,0,0,0-.33.162" transform="translate(-34.65 -4.122)" fill="#000"/>
  <g id="Group_159" data-name="Group 159" transform="translate(3.512 0.418)" clip-path="url(#clip-path-14)">
    <rect id="Rectangle_129" data-name="Rectangle 129" width="9.08" height="5.86" transform="translate(-0.39 -0.004)" fill="#000"/>
  </g>
  <path id="SVGID-48" data-name="SVGID" d="M448.46,56.028l.2.184a2.729,2.729,0,0,0,1.179.621c.309.04.235-.1-.168-.318l-1.131-.605a.068.068,0,0,0-.034-.009.073.073,0,0,0-.047.127" transform="translate(-407.176 -50.757)" fill="#000"/>
  <g id="Group_160" data-name="Group 160" transform="translate(41.259 5.143)" clip-path="url(#clip-path-15)">
    <rect id="Rectangle_130" data-name="Rectangle 130" width="1.744" height="0.965" transform="translate(-0.03 0.001)" fill="#000"/>
  </g>
  <path id="SVGID-49" data-name="SVGID" d="M408.205,135.6l-.04.006a2.629,2.629,0,0,0-1.38.71l-4.346,4.7c-.311.336-.281.368.066.069l5.894-5.048c.306-.262.276-.444-.049-.444a1.179,1.179,0,0,0-.144.009" transform="translate(-365.217 -123.115)" fill="#000"/>
  <g id="Group_161" data-name="Group 161" transform="translate(37.007 12.475)" clip-path="url(#clip-path-16)">
    <rect id="Rectangle_131" data-name="Rectangle 131" width="6.577" height="5.791" transform="translate(-0.098 0)" fill="#000"/>
  </g>
  <path id="SVGID-50" data-name="SVGID" d="M361.586,134.289l-1.81.148a1.541,1.541,0,0,0-1.162.823l-3.4,7.6c-.184.417-.086.483.224.147l7.411-8.011c.31-.336.338-.644.062-.688a4.846,4.846,0,0,0-.679-.038c-.216,0-.444.007-.644.024" transform="translate(-322.448 -121.911)" fill="#000"/>
  <g id="Group_162" data-name="Group 162" transform="translate(32.674 12.353)" clip-path="url(#clip-path-17)">
    <rect id="Rectangle_132" data-name="Rectangle 132" width="8.159" height="9.074" transform="translate(-0.094 0.001)" fill="#000"/>
  </g>
  <path id="SVGID-51" data-name="SVGID" d="M403.452,41.761l-.387,1.048a.6.6,0,0,0,.538.844l1.472.121a6.785,6.785,0,0,0,1.269,0c.246-.04.168-.318-.173-.621l-1.814-1.617a.622.622,0,0,0-.409-.175.54.54,0,0,0-.495.4" transform="translate(-365.936 -37.555)" fill="#000"/>
  <g id="Group_163" data-name="Group 163" transform="translate(37.08 3.805)" clip-path="url(#clip-path-18)">
    <rect id="Rectangle_133" data-name="Rectangle 133" width="3.681" height="2.451" transform="translate(-0.109 0)" fill="#000"/>
  </g>
  <path id="SVGID-52" data-name="SVGID" d="M328.023,39.369l.368,1.17a1.342,1.342,0,0,0,1.075.859l1.575.136a6.972,6.972,0,0,0,1.2.016c.209-.03.061-.247-.33-.481l-3.432-2.062a.638.638,0,0,0-.306-.108c-.184,0-.247.17-.152.47" transform="translate(-297.803 -35.321)" fill="#000"/>
  <g id="Group_164" data-name="Group 164" transform="translate(30.176 3.579)" clip-path="url(#clip-path-19)">
    <rect id="Rectangle_134" data-name="Rectangle 134" width="4.529" height="2.682" transform="translate(-0.051)" fill="#000"/>
  </g>
  <path id="SVGID-53" data-name="SVGID" d="M308.077,134.285l-1.582.137a1.38,1.38,0,0,0-1.092.854l-2.653,7.739c-.148.432-.034.5.254.142l6.611-8.119c.288-.354.246-.682-.1-.736a6.042,6.042,0,0,0-.8-.045c-.223,0-.447.008-.639.025" transform="translate(-274.835 -121.904)" fill="#000"/>
  <g id="Group_165" data-name="Group 165" transform="translate(27.849 12.352)" clip-path="url(#clip-path-20)">
    <rect id="Rectangle_135" data-name="Rectangle 135" width="7.304" height="9.25" transform="translate(-0.083 0.004)" fill="#000"/>
  </g>
  <path id="SVGID-54" data-name="SVGID" d="M279.3,36.764,276.7,38.817c-.358.283-.276.547.175.59l.488.045a10.472,10.472,0,0,0,1.647,0l1.073-.1a.638.638,0,0,0,.573-.867l-.46-1.449a.547.547,0,0,0-.505-.427.644.644,0,0,0-.395.152" transform="translate(-251.043 -33.242)" fill="#000"/>
  <g id="Group_166" data-name="Group 166" transform="translate(25.438 3.368)" clip-path="url(#clip-path-21)">
    <rect id="Rectangle_136" data-name="Rectangle 136" width="4.452" height="2.883" transform="translate(-0.134 0.002)" fill="#000"/>
  </g>
  <path id="SVGID-55" data-name="SVGID" d="M268.328,134.3l-1.129.1a.72.72,0,0,0-.653.886l1.748,8.281c.092.447.291.46.439.028l2.857-8.344a.62.62,0,0,0-.552-.859l-1.064-.1c-.227-.021-.525-.032-.823-.032s-.6.011-.823.032" transform="translate(-242.004 -121.916)" fill="#000"/>
  <g id="Group_167" data-name="Group 167" transform="translate(24.522 12.354)" clip-path="url(#clip-path-22)">
    <rect id="Rectangle_137" data-name="Rectangle 137" width="5.287" height="9.762" transform="translate(-0.074 0)" fill="#000"/>
  </g>
  <path id="SVGID-56" data-name="SVGID" d="M195.465,37.038l-.46,1.45a.638.638,0,0,0,.572.865l1.08.1a10.7,10.7,0,0,0,1.647,0l.491-.046c.455-.042.533-.305.175-.589l-2.6-2.055a.644.644,0,0,0-.394-.153.544.544,0,0,0-.507.428" transform="translate(-177.025 -33.242)" fill="#000"/>
  <g id="Group_168" data-name="Group 168" transform="translate(17.938 3.368)" clip-path="url(#clip-path-23)">
    <rect id="Rectangle_138" data-name="Rectangle 138" width="4.462" height="2.884" transform="translate(-0.098 0)" fill="#000"/>
  </g>
  <path id="SVGID-57" data-name="SVGID" d="M196.958,134.339l-1.065.1a.618.618,0,0,0-.552.859l2.861,8.343c.148.432.345.42.44-.027l1.755-8.281a.719.719,0,0,0-.652-.885l-1.134-.1c-.228-.021-.526-.032-.828-.032s-.6.011-.823.032" transform="translate(-177.327 -121.953)" fill="#000"/>
  <g id="Group_169" data-name="Group 169" transform="translate(17.969 12.357)" clip-path="url(#clip-path-24)">
    <rect id="Rectangle_139" data-name="Rectangle 139" width="5.298" height="9.765" transform="translate(-0.107 -0.004)" fill="#000"/>
  </g>
  <path id="SVGID-58" data-name="SVGID" d="M137.747,134.345c-.368.052-.441.381-.153.736l6.608,8.113c.288.354.4.291.254-.142l-2.654-7.74a1.38,1.38,0,0,0-1.092-.858l-1.467-.131c-.191-.017-.42-.026-.65-.026a6.675,6.675,0,0,0-.847.046" transform="translate(-124.774 -121.941)" fill="#000"/>
  <g id="Group_170" data-name="Group 170" transform="translate(12.644 12.356)" clip-path="url(#clip-path-25)">
    <rect id="Rectangle_140" data-name="Rectangle 140" width="7.3" height="9.249" transform="translate(-0.113 0.002)" fill="#000"/>
  </g>
  <path id="SVGID-59" data-name="SVGID" d="M146.166,39.018l-3.422,2.054c-.392.235-.517.453-.276.486a7.24,7.24,0,0,0,1.253-.014l1.459-.131a1.348,1.348,0,0,0,1.076-.862l.368-1.17c.092-.3.029-.47-.151-.47a.622.622,0,0,0-.307.108" transform="translate(-129.248 -35.33)" fill="#000"/>
  <g id="Group_171" data-name="Group 171" transform="translate(13.097 3.58)" clip-path="url(#clip-path-26)">
    <rect id="Rectangle_141" data-name="Rectangle 141" width="4.493" height="2.68" transform="translate(-0.118 -0.001)" fill="#000"/>
  </g>
  <path id="SVGID-60" data-name="SVGID" d="M74.928,134.243c-.2.04-.115.342.2.678l7.447,8.061c.31.336.409.27.223-.146l-3.424-7.623A1.534,1.534,0,0,0,78.2,134.4l-2.08-.158c-.212-.017-.44-.025-.644-.025a3.55,3.55,0,0,0-.552.031" transform="translate(-67.935 -121.863)" fill="#000"/>
  <g id="Group_172" data-name="Group 172" transform="translate(6.884 12.348)" clip-path="url(#clip-path-27)">
    <rect id="Rectangle_142" data-name="Rectangle 142" width="8.253" height="9.105" transform="translate(-0.093 0.001)" fill="#000"/>
  </g>
  <path id="SVGID-61" data-name="SVGID" d="M77.944,41.546l-1.83,1.63c-.341.3-.477.577-.3.611a6.286,6.286,0,0,0,1.145,0l1.748-.133a.59.59,0,0,0,.538-.838l-.386-1.045a.536.536,0,0,0-.494-.4.624.624,0,0,0-.409.176" transform="translate(-68.767 -37.564)" fill="#000"/>
  <g id="Group_173" data-name="Group 173" transform="translate(6.969 3.806)" clip-path="url(#clip-path-28)">
    <rect id="Rectangle_143" data-name="Rectangle 143" width="3.753" height="2.453" transform="translate(-0.098 0)" fill="#000"/>
  </g>
  <path id="SVGID-62" data-name="SVGID" d="M45.705,135.921l5.966,5.115c.347.3.376.266.067-.07l-4.39-4.751a2.66,2.66,0,0,0-1.38-.715l-.07-.009a1.138,1.138,0,0,0-.15-.01c-.318,0-.347.184-.042.441" transform="translate(-41.307 -123.015)" fill="#000"/>
  <g id="Group_174" data-name="Group 174" transform="translate(4.186 12.465)" clip-path="url(#clip-path-29)">
    <rect id="Rectangle_144" data-name="Rectangle 144" width="6.647" height="5.852" transform="translate(-0.092)" fill="#000"/>
  </g>
  <path id="SVGID-63" data-name="SVGID" d="M52.692,55.811l-.976.521c-.4.214-.471.354-.152.312a2.767,2.767,0,0,0,1.2-.627l.046-.041c.209-.184.27-.285.2-.285a.9.9,0,0,0-.309.121" transform="translate(-46.637 -50.566)" fill="#000"/>
  <g id="Group_175" data-name="Group 175" transform="translate(4.726 5.124)" clip-path="url(#clip-path-30)">
    <rect id="Rectangle_145" data-name="Rectangle 145" width="1.832" height="0.996" transform="translate(-0.118 0)" fill="#000"/>
  </g>
  <path id="SVGID-64" data-name="SVGID" d="M227.892,105.06h-.071c-.117,0-.212.131-.212.282v.393c0,.092,0,.19.006.292l0,.1a.324.324,0,0,0,.352.276s.21,0,.424-.006a1.9,1.9,0,0,0,.572-.1.828.828,0,0,0,.368-.247.552.552,0,0,0,.12-.35.454.454,0,0,0-.144-.359.92.92,0,0,0-.368-.193,2.043,2.043,0,0,0-.466-.078c-.164-.009-.313-.014-.446-.014Z" transform="translate(-206.668 -95.394)" fill="#000"/>
  <g id="Group_176" data-name="Group 176" transform="translate(20.942 9.666)" clip-path="url(#clip-path-31)">
    <rect id="Rectangle_146" data-name="Rectangle 146" width="1.354" height="1.856" transform="translate(-0.006 1.346) rotate(-89.74)" fill="#000"/>
  </g>
  <path id="SVGID-65" data-name="SVGID" d="M227.922,82.973h-.1c-.109,0-.2.127-.2.276l-.008.092c0,.1-.006.191-.006.282s0,.184.006.276l0,.092c0,.139.16.254.352.255,0,0,.092,0,.285-.006a2.116,2.116,0,0,0,.523-.078.786.786,0,0,0,.415-.242.558.558,0,0,0,.126-.351.46.46,0,0,0-.132-.351.769.769,0,0,0-.308-.184,1.559,1.559,0,0,0-.368-.064c-.122,0-.223,0-.3,0Z" transform="translate(-206.668 -75.336)" fill="#000"/>
  <g id="Group_177" data-name="Group 177" transform="translate(20.942 7.634)" clip-path="url(#clip-path-32)">
    <rect id="Rectangle_147" data-name="Rectangle 147" width="1.293" height="1.717" transform="translate(-0.006 1.284) rotate(-89.74)" fill="#000"/>
  </g>
  <path id="SVGID-66" data-name="SVGID" d="M7.9,77.151,3.91,77.129c-.46,0-.552-.248-.2-.547l.927-.808A1.348,1.348,0,0,1,6,75.6l1.315.644a7.25,7.25,0,0,1,1.077.644c.184.15-.029.27-.475.27H7.9m32.952-.908,1.316-.644a1.349,1.349,0,0,1,1.366.178l.926.808c.345.3.254.545-.2.547l-3.99.022h-.016c-.446,0-.659-.12-.476-.27M7.617,75.312,5.961,74.306a8.977,8.977,0,0,1-1.366-1c-.236-.236.043-.423.619-.42l5.039.036c.577,0,.692.385.257.852L9.342,75.035a1.484,1.484,0,0,1-1.067.45,1.266,1.266,0,0,1-.655-.173m30.643-.276L37.09,73.779c-.434-.467-.319-.848.257-.852l5.038-.036c.578,0,.856.184.621.42a9.041,9.041,0,0,1-1.362,1l-1.656,1.006a1.264,1.264,0,0,1-.655.173,1.482,1.482,0,0,1-1.069-.45M27.487,72.708l.466-.006h.26c.192-.006.419.157.412.315,0,0-.017.316-.024.616s-.013.6-.013.894c0,.493,0,.982.013,1.472s.047,1.174.047,1.174c.008.157-.217.327-.41.327h-.656c-.143,0-.3,0-.46.006l-.26.006c-.192,0-.422-.162-.419-.319,0,0,.031-1.485.031-2.371V74.37c0-.138,0-.282-.006-.433s-.01-.321-.018-.509-.021-.388-.021-.388c-.009-.157.2-.327.4-.326h.663m2.843.634v-.057c0-.057.007-.11.012-.16a1.683,1.683,0,0,0,.014-.168l0-.059c0-.092.236-.206.429-.206H35.8c.192,0,.4.106.384.192l-.008.062c-.008.062-.015.119-.019.173s-.007.109-.012.167l0,.056a.276.276,0,0,1-.166.19h-.742c-.159,0-.317-.006-.471-.006h-.155c-.175,0-.318.066-.319.147v.066c0,.064-.006.131-.006.2v.451q0,.778.013,1.542c.007.509.048,1.256.048,1.256.008.157-.218.326-.411.326h-.72l-.441.007h-.191c-.192,0-.406-.148-.4-.288l0-.092c0-.092.007-.184.012-.292s.006-.228.006-.368v-1.2q0-.285.013-.577c0-.167,0-.3.006-.407s.006-.2.006-.276v-.3c0-.11-.158-.2-.351-.2H30.569c-.108,0-.247-.106-.239-.19M11.28,77.35c.029-.03.152-.155.276-.276l.092-.092.232-.231c.072-.07.145-.144.221-.22l.075-.077.415-.441.68-.719a.331.331,0,0,0,0-.452l-.512-.532c-.119-.124-.3-.318-.4-.432l-.092-.1c-.092-.1-.2-.2-.3-.3s-.206-.219-.34-.357l-.134-.137c-.113-.121,0-.259.2-.26h.276c.171,0,.335-.006.49-.01l.478-.014.248-.007a2.16,2.16,0,0,1,.394.007.9.9,0,0,1,.169.2l.051.07c.051.07.1.135.145.193s.092.114.132.166l.042.052c.053.066.184.228.292.359l.126.155a.227.227,0,0,0,.368.017c.092-.121.245-.313.338-.427L15.3,73.4l.155-.214c.051-.065.1-.133.151-.2l.051-.07a.742.742,0,0,1,.176-.2,3.059,3.059,0,0,1,.4-.017h.543l.4-.006h.172c.192,0,.322.092.241.173l-.067.063q-.1.092-.226.224c-.085.086-.184.19-.3.312s-.224.236-.224.236c-.119.123-.31.328-.426.455l-.552.6a.348.348,0,0,0,0,.46l.616.679.42.46.223.243c.1.116.2.213.276.3s.155.162.226.24l.071.079c.117.122.017.276-.176.276h-.31l-.5.01-.46.014-.2.006a2.323,2.323,0,0,1-.395-.013.552.552,0,0,1-.12-.114l-.024-.039a1.589,1.589,0,0,0-.114-.145c-.05-.059-.116-.138-.2-.237L15,76.809c-.1-.132-.276-.349-.384-.479l-.092-.107a.23.23,0,0,0-.379.006l-.01.014c-.1.133-.258.337-.348.45l-.264.339-.037.045c-.038.045-.072.086-.1.122s-.059.073-.092.111l-.029.039a.514.514,0,0,1-.121.121,2.425,2.425,0,0,1-.395.019h-.587l-.415.007H11.55a.316.316,0,0,1-.27-.147m7.628.134a.712.712,0,0,1-.025-.306s.017-.416.025-.761.014-.7.014-1.048q0-.664-.014-1.315c-.007-.434-.053-1.029-.053-1.029-.012-.157.2-.327.391-.327h.7q.435,0,.812-.01h.955c.286,0,.6.006.945.017a4.435,4.435,0,0,1,.949.126,1.943,1.943,0,0,1,.73.335.773.773,0,0,1,.3.653.828.828,0,0,1-.315.651,1.907,1.907,0,0,1-.565.292c-.184.055-.374.109-.429.12l-.05.009-.051.009c-.055.01-.062.021-.013.026h.1l.328.052a4.855,4.855,0,0,1,.757.246,1.157,1.157,0,0,1,.38.287.9.9,0,0,1,.2.552.876.876,0,0,1-.082.383,1.14,1.14,0,0,1-.213.308,1.552,1.552,0,0,1-.29.234l-.1.066c-.111.051-.348.144-.524.208a2.686,2.686,0,0,1-.352.086,6.555,6.555,0,0,1-.828.1q-.453.03-.987.038t-1.152.006H19.7l-.453.006h-.154a.634.634,0,0,1-.184-.019M3.19,72.42a.552.552,0,0,0-.307.092L.239,74.289a.552.552,0,0,0-.08.853l2.5,2.452a.552.552,0,0,0,.386.158H44.157a1.146,1.146,0,0,0,.8-.324l2.074-2.017a.894.894,0,0,0-.1-1.367l-1.9-1.364a1.351,1.351,0,0,0-.789-.255Z" transform="translate(0.006 -65.757)" fill="#000"/>
  <g id="Group_178" data-name="Group 178" transform="translate(0 6.663)" clip-path="url(#clip-path-33)">
    <rect id="Rectangle_148" data-name="Rectangle 148" width="47.516" height="5.326" transform="translate(-0.084 0.005)" fill="#000"/>
  </g>
</svg>
